<?xml version="1.0" encoding="UTF-8"?>
<svg width="29px" height="29px" viewBox="0 0 29 29" version="1.1" xmlns="http://www.w3.org/2000/svg" xmlns:xlink="http://www.w3.org/1999/xlink">
    <!-- Generator: Sketch 45.2 (43514) - http://www.bohemiancoding.com/sketch -->
    <title>coffee_icon</title>
    <desc>Created with Sketch.</desc>
    <defs></defs>
    <g id="Page-1" stroke="none" stroke-width="1" fill="none" fill-rule="evenodd">
        <g id="coffee_icon">
            <g>
                <rect id="Rectangle-2-Copy-6" fill-opacity="0" fill="#444444" x="0.322222222" y="0" width="28.0333333" height="29" rx="3"></rect>
                <g id="Group-8" transform="translate(7.250000, 6.000000)">
                    <g id="Group-9" transform="translate(0.000000, 0.424065)"></g>
                    <path d="M11.7579478,13.6650734 C11.7648389,13.7131445 11.7683348,13.7618637 11.7683348,13.8112085 C11.7683348,15.1267093 9.28373511,15.997586 6.22139476,15.997586 C3.15905441,15.997586 0.674454727,15.1267093 0.674454727,13.8112085 C0.674454727,13.7290986 0.684134483,13.648721 0.703030303,13.5701793 L0.703030303,3.80985795 C0.661062243,3.68573135 0.639301066,3.55659945 0.639301066,3.42274119 C0.639301066,3.28888293 0.661062243,3.15975102 0.703030303,3.03562442 L0.703030303,2.96053612 L0.731121718,2.96053612 C1.2096285,1.79502858 3.50113078,1.09090909 6.25309667,1.09090909 C9.35192066,1.09090909 11.8668923,1.9837089 11.8668923,3.42274119 C11.8668923,3.59346365 11.8314947,3.75649803 11.7639242,3.91126564 L11.7639242,3.96787869 C11.8519636,3.96044737 11.9409809,3.95666126 12.030853,3.95666126 C13.9142255,3.95666126 15.4222151,5.6193692 15.4222151,7.64808618 C15.4222151,9.67680316 13.9142255,11.3395111 12.030853,11.3395111 C11.9409809,11.3395111 11.8519636,11.335725 11.7639242,11.3282937 L11.7639242,13.6650734 L11.7579478,13.6650734 Z M11.7639242,9.86478006 C11.8513317,9.8780953 11.940445,9.88496565 12.030853,9.88496565 C13.1169298,9.88496565 14.0161545,8.89348131 14.0161545,7.64808618 C14.0161545,6.40269106 13.1169298,5.41120672 12.030853,5.41120672 C11.940445,5.41120672 11.8513317,5.41807706 11.7639242,5.4313923 L11.7639242,9.86478006 Z M6.22838983,4.79504376 C7.59578103,4.79504376 8.87229435,4.60839772 9.80079756,4.28742131 C10.6009005,4.0108319 11.0089959,3.6772921 11.0089959,3.48139348 C11.0089959,3.28549487 10.6009005,2.95195507 9.80079756,2.67536565 C8.87229435,2.35438925 7.59578103,2.1677432 6.22838983,2.1677432 C4.86099863,2.1677432 3.58448531,2.35438925 2.6559821,2.67536565 C1.85587918,2.95195507 1.44778377,3.28549487 1.44778377,3.48139348 C1.44778377,3.6772921 1.85587918,4.0108319 2.6559821,4.28742131 C3.58448531,4.60839772 4.86099863,4.79504376 6.22838983,4.79504376 Z" id="Combined-Shape" fill="#CECECE" fill-rule="nonzero"></path>
                </g>
            </g>
        </g>
    </g>
</svg>