<?xml version="1.0" encoding="UTF-8"?>
<svg width="29px" height="29px" viewBox="0 0 29 29" version="1.1" xmlns="http://www.w3.org/2000/svg" xmlns:xlink="http://www.w3.org/1999/xlink">
    <!-- Generator: Sketch 45.2 (43514) - http://www.bohemiancoding.com/sketch -->
    <title>piano_icon</title>
    <desc>Created with Sketch.</desc>
    <defs></defs>
    <g id="Page-1" stroke="none" stroke-width="1" fill="none" fill-rule="evenodd">
        <g id="piano_icon">
            <g>
                <rect id="Rectangle-2-Copy-7" fill-opacity="0" fill="#444444" x="0.467222222" y="0" width="28.0333333" height="29" rx="3"></rect>
                <path d="M10.0115784,6.60881857 C10.1000054,6.60097773 10.1895352,6.59697353 10.2800002,6.59697353 L10.2800002,6.59697353 L18.7100485,6.59697353 C18.8221284,6.59697353 18.9327727,6.60311978 19.0416629,6.6150936 L19.0416629,16.6077254 L15.4805146,16.6077254 L15.4805146,6.59697353 L19.0416629,6.59697353 L19.0416629,6.6150936 C20.5424739,6.78012642 21.7100485,8.05219914 21.7100485,9.59697353 L21.7100485,18.9030265 C21.7100485,20.5598807 20.3669028,21.9030265 18.7100485,21.9030265 L10.2800002,21.9030265 L10.2800002,21.9030265 C8.62314596,21.9030265 7.28000021,20.5598807 7.28000021,18.9030265 L7.28000021,9.59697353 L7.28000021,9.59697353 C7.28000021,8.03058429 8.4804774,6.74458153 10.0115784,6.60881857 L10.0115784,16.6077254 L13.5727267,16.6077254 L13.5727267,6.59697353 L10.0115784,6.59697353 L10.0115784,6.60881857 Z" id="Combined-Shape" fill="#CECECE"></path>
            </g>
        </g>
    </g>
</svg>