<?xml version="1.0" encoding="UTF-8"?>
<svg width="176px" height="163px" viewBox="0 0 176 163" version="1.1" xmlns="http://www.w3.org/2000/svg" xmlns:xlink="http://www.w3.org/1999/xlink">
    <!-- Generator: Sketch 45.2 (43514) - http://www.bohemiancoding.com/sketch -->
    <title>VectoredLogo</title>
    <desc>Created with Sketch.</desc>
    <defs></defs>
    <g id="Page-1" stroke="none" stroke-width="1" fill="none" fill-rule="evenodd">
        <g id="VectoredLogo">
            <path d="M39.5271799,137.161319 C41.1166656,133.929364 43.9261434,128.512405 43.9261434,115.575986 L34.8494953,115.575986 C34.8494953,127.247369 32.1561855,131.581946 31.38225,133.155615 L39.5271799,137.161319 Z" id="Path-3" fill="#444444" fill-rule="nonzero" transform="translate(37.654197, 126.368652) scale(-1, 1) translate(-37.654197, -126.368652) "></path>
            <path d="M67.404269,150.306856 C70.8307963,158.048269 76.8037922,162.236232 84.7153824,162.236232 C92.5686454,162.236232 98.64199,158.119854 102.402819,150.472834 C105.79019,143.58518 107.407003,133.722625 107.407003,120.786206 L98.3303546,120.786206 C98.3303546,132.457588 96.9216175,141.050884 94.2578896,146.467131 C91.9676204,151.124012 88.9643168,153.159584 84.7153824,153.159584 C80.5247751,153.159584 77.7236778,151.195596 75.7042162,146.633109 C73.3214807,141.249892 72.3368141,132.669226 72.9102613,121.009133 C72.9157398,107.712353 71.4721408,97.767559 68.4538176,90.8365946 C65.0552676,83.032517 59.4356346,78.7310695 52.0394492,78.7310695 C44.6006488,78.7310695 39.0507611,83.0866775 35.8794992,90.9514071 C33.077356,97.9007223 31.953794,107.852272 32.3757377,120.932527 L41.447667,120.639884 C40.7146603,97.9166777 44.7908539,87.8077176 52.0394492,87.8077176 C59.3817358,87.8077176 63.8247556,97.9830361 63.8390571,120.676215 C63.2144082,133.568426 64.3499282,143.406308 67.404269,150.306856 Z" id="Path-3" fill="#444444" fill-rule="nonzero"></path>
            <path d="M47.1985702,128.283293 C20.6260702,128.283293 0.0600068992,99.2064471 0.0600068992,64.1416467 C0.0600068992,29.0768462 20.6260702,0 47.1985702,0 C73.7710701,0 94.3371335,29.0768462 94.3371335,64.1416467 C94.3371335,99.2064471 73.7710701,128.283293 47.1985702,128.283293 Z M47.1985702,114.970876 C68.5390302,114.970876 86.9452009,92.0316739 86.9452009,62.9314269 C86.9452009,33.8311799 68.5390302,10.8919777 47.1985702,10.8919777 C25.8581102,10.8919777 7.45193943,33.8311799 7.45193943,62.9314269 C7.45193943,92.0316739 25.8581102,114.970876 47.1985702,114.970876 Z" id="Oval" fill="#444444" fill-rule="nonzero"></path>
            <path d="M149.72291,110.167971 C151.898408,111.48472 155.963153,112.744218 160.772149,112.744218 C170.218389,112.744218 176.000633,107.935223 176.000633,101.40873 C176.000633,96.485235 172.393887,93.1074885 167.928391,92.3059893 L167.928391,92.1914894 C172.508387,90.645741 174.741134,87.4969942 174.741134,83.5467482 C174.741134,78.4515034 170.332889,74.2722577 162.432397,74.2722577 C157.566152,74.2722577 153.157906,75.6462563 150.925159,77.0775048 L152.699907,83.3749984 C154.188405,82.4589993 157.394402,81.1422507 160.428649,81.1422507 C164.149895,81.1422507 165.924643,82.802499 165.924643,85.0352467 C165.924643,88.1839935 162.260647,89.3289923 159.3409,89.3289923 L155.963153,89.3289923 L155.963153,95.569236 L159.51265,95.569236 C163.291146,95.569236 166.955142,97.2294843 166.955142,100.95073 C166.955142,103.698728 164.665145,105.874225 160.142399,105.874225 C156.592903,105.874225 153.043406,104.442977 151.497658,103.584228 L149.72291,110.167971 Z" id="M3" fill="#B22C2C"></path>
            <path d="M133.649989,112.114469 L142.12298,112.114469 L140.061982,73.5280084 L128.611994,73.5280084 L124.547248,86.3519953 C123.230499,90.645741 121.913751,95.7409858 120.883252,100.206481 L120.654252,100.206481 C119.795503,95.6837358 118.650504,90.8747407 117.391005,86.4092453 L113.612509,73.5280084 L101.990771,73.5280084 L99.5290236,112.114469 L107.601265,112.114469 L108.345515,97.458484 C108.574514,92.6494889 108.803514,86.695495 108.975264,81.4857503 L109.089764,81.4857503 C110.063013,86.5809951 111.322512,92.0197396 112.58201,96.542485 L116.704006,111.48472 L123.516749,111.48472 L128.211244,96.4279851 C129.699743,91.9052397 131.302741,86.4092453 132.56224,81.4857503 L132.67674,81.4857503 C132.67674,87.1534945 132.84849,92.7067389 133.020239,97.3439841 L133.649989,112.114469 Z" id="Path" fill="#444444"></path>
        </g>
    </g>
</svg>