<?xml version="1.0" encoding="UTF-8"?>
<svg width="29px" height="29px" viewBox="0 0 29 29" version="1.1" xmlns="http://www.w3.org/2000/svg" xmlns:xlink="http://www.w3.org/1999/xlink">
    <!-- Generator: Sketch 45.2 (43514) - http://www.bohemiancoding.com/sketch -->
    <title>refresh_icon</title>
    <desc>Created with Sketch.</desc>
    <defs></defs>
    <g id="Page-1" stroke="none" stroke-width="1" fill="none" fill-rule="evenodd">
        <g id="refresh_icon">
            <g>
                <rect id="Rectangle-2-Copy-4" fill-opacity="0" fill="#444444" x="0.644444444" y="0" width="28.0333333" height="29" rx="3"></rect>
                <path d="M18.7581429,10.8764489 C19.6472817,11.9155629 20.0918444,13.1233809 20.0918444,14.4999392 C20.0918444,16.0371852 19.5414972,17.3534658 18.4407862,18.4488205 C17.3400752,19.5441753 16.0237946,20.0918444 14.4919048,20.0918444 C12.9600151,20.0918444 11.6450735,19.5414972 10.5470407,18.4407862 C9.44900781,17.3400752 8.89999962,16.0264727 8.89999962,14.4999392 C8.89999962,12.9841182 9.41954884,11.6879233 10.4586629,10.6113154 L8.91606831,9.92036164 L12.7484516,8.89999962 L11.7280896,12.7404173 L11.0210671,11.1737197 C10.1319283,12.1110648 9.68736558,13.2197936 9.68736558,14.4999392 C9.68736558,15.8175786 10.1587092,16.9477321 11.1014106,17.8904334 C12.044112,18.8331348 13.1742654,19.3044784 14.4919048,19.3044784 C15.8095443,19.3044784 16.9396977,18.8331348 17.8823991,17.8904334 C18.8251005,16.9477321 19.2964441,15.8175786 19.2964441,14.4999392 C19.2964441,13.3162062 18.9134774,12.2744297 18.1475325,11.3745784 L18.7581429,10.8764489 Z" id="↻" stroke="#CECECE" stroke-width="0.4" fill="#CECECE"></path>
            </g>
        </g>
    </g>
</svg>