<?xml version="1.0" encoding="UTF-8"?>
<svg width="147px" height="133px" viewBox="0 0 147 133" version="1.1" xmlns="http://www.w3.org/2000/svg" xmlns:xlink="http://www.w3.org/1999/xlink">
    <!-- Generator: Sketch 45.2 (43514) - http://www.bohemiancoding.com/sketch -->
    <title>Group 3</title>
    <desc>Created with Sketch.</desc>
    <defs></defs>
    <g id="Page-1" stroke="none" stroke-width="1" fill="none" fill-rule="evenodd">
        <g id="Group-3">
            <g id="Group" fill-rule="nonzero" fill="#444444">
                <g id="Group-2" transform="translate(25.874419, 62.403010)">
                    <path d="M7.2663072,52.5969897 C8.59897782,49.8872261 10.9545249,45.3454914 10.9545249,34.4992252 L3.34440171,34.4992252 C3.34440171,44.2848485 1.08625322,47.9190835 0.437363402,49.2384928 L7.2663072,52.5969897 Z" id="Path-3" transform="translate(5.695944, 43.548107) scale(-1, 1) translate(-5.695944, -43.548107) "></path>
                    <path d="M30.6392616,60.2648717 C33.5121608,66.7554958 38.5200926,70.2668042 45.1533977,70.2668042 C51.7377996,70.2668042 56.8298666,66.8155144 59.9830544,60.4040325 C62.8231236,54.629225 64.1787057,46.3601745 64.1787057,35.5139083 L56.5685825,35.5139083 C56.5685825,45.2995316 55.3874568,52.5043983 53.1541106,57.0455356 C51.2338829,60.9499985 48.7158267,62.656681 45.1533977,62.656681 C41.6398718,62.656681 39.2913512,61.0100171 37.5981764,57.1846964 C35.6004224,52.671252 34.7748495,45.4769745 35.2556442,35.7008166 C35.2602375,24.5524133 34.0498825,16.2144119 31.5192334,10.4032917 C28.6697912,3.86012827 23.958129,0.253670773 17.7569541,0.253670773 C11.5200497,0.253670773 6.86686398,3.90553804 4.20798666,10.4995538 C1.85858907,16.3260598 0.916562295,24.6697255 1.27033206,35.6365884 L8.87649887,35.3912282 C8.26192497,16.3394373 11.6795231,7.86379398 17.7569541,7.86379398 C23.9129387,7.86379398 27.6380945,16.3950741 27.6500853,35.4216891 C27.1263617,46.23089 28.0784143,54.4792537 30.6392616,60.2648717 Z" id="Path-3"></path>
                </g>
                <path d="M39.5726407,107.556408 C17.2934914,107.556408 0.0503115126,83.1775426 0.0503115126,53.778204 C0.0503115126,24.3788653 17.2934914,0 39.5726407,0 C61.85179,0 79.0949698,24.3788653 79.0949698,53.778204 C79.0949698,83.1775426 61.85179,107.556408 39.5726407,107.556408 Z M39.5726407,96.3948939 C57.465097,96.3948939 72.8973607,77.1620061 72.8973607,52.7635209 C72.8973607,28.3650356 57.465097,9.13214784 39.5726407,9.13214784 C21.6801844,9.13214784 6.24792065,28.3650356 6.24792065,52.7635209 C6.24792065,77.1620061 21.6801844,96.3948939 39.5726407,96.3948939 Z" id="Oval"></path>
            </g>
            <text id="M3" font-family="MyriadPro-Bold, Myriad Pro" font-size="48" font-weight="bold" letter-spacing="2.0999999">
                <tspan x="81" y="94" fill="#444444">M</tspan>
                <tspan x="123.708" y="94" fill="#B22C2C">3</tspan>
            </text>
        </g>
    </g>
</svg>