<?xml version="1.0" encoding="UTF-8"?>
<svg width="176px" height="159px" viewBox="0 0 176 159" version="1.1" xmlns="http://www.w3.org/2000/svg" xmlns:xlink="http://www.w3.org/1999/xlink">
    <!-- Generator: Sketch 45.2 (43514) - http://www.bohemiancoding.com/sketch -->
    <title>VectoredLogo</title>
    <desc>Created with Sketch.</desc>
    <defs></defs>
    <g id="Page-1" stroke="none" stroke-width="1" fill="none" fill-rule="evenodd">
        <g id="VectoredLogo">
            <g id="Group" fill-rule="nonzero" fill="#444444">
                <g id="Group-2" transform="translate(30.860604, 74.428515)">
                    <path d="M8.66657632,62.732804 C10.2560621,59.5008497 13.0655398,54.0838904 13.0655398,41.1474714 L3.98889172,41.1474714 C3.98889172,52.818854 1.29558195,57.153432 0.521646443,58.7271008 L8.66657632,62.732804 Z" id="Path-3" transform="translate(6.793593, 51.940138) scale(-1, 1) translate(-6.793593, -51.940138) "></path>
                    <path d="M36.5436655,71.8783415 C39.9701927,79.619755 45.9431886,83.8077176 53.8547788,83.8077176 C61.7080418,83.8077176 67.7813864,79.6913396 71.5422159,72.0443195 C74.9295867,65.1566656 76.5463991,55.2941102 76.5463991,42.3576912 L67.469751,42.3576912 C67.469751,54.0290738 66.061014,62.6223695 63.397286,68.0386163 C61.1070168,72.695497 58.1037133,74.7310695 53.8547788,74.7310695 C49.6641715,74.7310695 46.8630742,72.7670817 44.8436126,68.2045944 C42.4608772,62.8213772 41.4762106,54.2407111 42.0496578,42.580618 C42.0551363,29.2838381 40.6115372,19.3390445 37.593214,12.4080801 C34.194664,4.60400246 28.575031,0.302554937 21.1788456,0.302554937 C13.7400453,0.302554937 8.19015755,4.65816302 5.01889564,12.5228926 C2.21675241,19.4722077 1.09319037,29.4237572 1.5151341,42.5040126 L10.5870634,42.2113698 C9.85405672,19.4881631 13.9302503,9.37920305 21.1788456,9.37920305 C28.5211322,9.37920305 32.964152,19.5545216 32.9784535,42.2477007 C32.3538046,55.1399116 33.4893246,64.9777937 36.5436655,71.8783415 Z" id="Path-3"></path>
                </g>
                <path d="M47.1985702,128.283293 C20.6260702,128.283293 0.0600068992,99.2064471 0.0600068992,64.1416467 C0.0600068992,29.0768462 20.6260702,0 47.1985702,0 C73.7710701,0 94.3371335,29.0768462 94.3371335,64.1416467 C94.3371335,99.2064471 73.7710701,128.283293 47.1985702,128.283293 Z M47.1985702,114.970876 C68.5390302,114.970876 86.9452009,92.0316739 86.9452009,62.9314269 C86.9452009,33.8311799 68.5390302,10.8919777 47.1985702,10.8919777 C25.8581102,10.8919777 7.45193943,33.8311799 7.45193943,62.9314269 C7.45193943,92.0316739 25.8581102,114.970876 47.1985702,114.970876 Z" id="Oval"></path>
            </g>
            <path d="M149.72291,110.167971 C151.898408,111.48472 155.963153,112.744218 160.772149,112.744218 C170.218389,112.744218 176.000633,107.935223 176.000633,101.40873 C176.000633,96.485235 172.393887,93.1074885 167.928391,92.3059893 L167.928391,92.1914894 C172.508387,90.645741 174.741134,87.4969942 174.741134,83.5467482 C174.741134,78.4515034 170.332889,74.2722577 162.432397,74.2722577 C157.566152,74.2722577 153.157906,75.6462563 150.925159,77.0775048 L152.699907,83.3749984 C154.188405,82.4589993 157.394402,81.1422507 160.428649,81.1422507 C164.149895,81.1422507 165.924643,82.802499 165.924643,85.0352467 C165.924643,88.1839935 162.260647,89.3289923 159.3409,89.3289923 L155.963153,89.3289923 L155.963153,95.569236 L159.51265,95.569236 C163.291146,95.569236 166.955142,97.2294843 166.955142,100.95073 C166.955142,103.698728 164.665145,105.874225 160.142399,105.874225 C156.592903,105.874225 153.043406,104.442977 151.497658,103.584228 L149.72291,110.167971 Z" id="M3" fill="#B22C2C"></path>
            <path d="M133.649989,112.114469 L142.12298,112.114469 L140.061982,73.5280084 L128.611994,73.5280084 L124.547248,86.3519953 C123.230499,90.645741 121.913751,95.7409858 120.883252,100.206481 L120.654252,100.206481 C119.795503,95.6837358 118.650504,90.8747407 117.391005,86.4092453 L113.612509,73.5280084 L101.990771,73.5280084 L99.5290236,112.114469 L107.601265,112.114469 L108.345515,97.458484 C108.574514,92.6494889 108.803514,86.695495 108.975264,81.4857503 L109.089764,81.4857503 C110.063013,86.5809951 111.322512,92.0197396 112.58201,96.542485 L116.704006,111.48472 L123.516749,111.48472 L128.211244,96.4279851 C129.699743,91.9052397 131.302741,86.4092453 132.56224,81.4857503 L132.67674,81.4857503 C132.67674,87.1534945 132.84849,92.7067389 133.020239,97.3439841 L133.649989,112.114469 Z" id="Path" fill="#444444"></path>
        </g>
    </g>
</svg>