<?xml version="1.0" encoding="UTF-8"?>
<svg width="222px" height="158px" viewBox="0 0 222 158" version="1.1" xmlns="http://www.w3.org/2000/svg" xmlns:xlink="http://www.w3.org/1999/xlink">
    <!-- Generator: Sketch 45.2 (43514) - http://www.bohemiancoding.com/sketch -->
    <title>logo</title>
    <desc>Created with Sketch.</desc>
    <defs></defs>
    <g id="Page-1" stroke="none" stroke-width="1" fill="none" fill-rule="evenodd">
        <g id="logo">
            <g id="Group" fill-rule="nonzero">
                <g id="Group-2" transform="translate(30.545602, 73.668806)">
                    <path d="M0.516321878,81.7544062 C8.28942484,81.7544062 14.3007774,77.680045 18.0232193,70.1110799 C21.3760144,63.2937297 22.9763236,53.5318437 22.9763236,40.7274698 L13.9923229,40.7274698 C13.9923229,52.2797198 12.5979652,60.7853019 9.96142655,66.1462638 C7.69453465,70.7556106 4.72188649,72.7704055 0.516321878,72.7704055 L0.516321878,81.7544062 Z" id="Path-3" fill="#B4B4B4" transform="translate(11.746323, 61.240938) scale(-1, 1) translate(-11.746323, -61.240938) "></path>
                    <path d="M36.1706559,71.1446627 C39.5622078,78.8070578 45.4742359,82.9522729 53.3050707,82.9522729 C61.0781737,82.9522729 67.0895262,78.8779118 70.8119681,71.3089466 C74.1647632,64.4915965 75.7650724,54.7297105 75.7650724,41.9253365 L66.7810717,41.9253365 C66.7810717,53.4775866 65.386714,61.9831686 62.7501754,67.3441305 C60.4832835,71.9534774 57.5106353,73.9682723 53.3050707,73.9682723 C49.1572379,73.9682723 46.3847321,72.0243314 44.3858836,67.5084144 C42.0274692,62.180145 41.0528533,53.6870637 41.6204472,42.1459879 C41.6258698,28.9849312 40.1970059,19.1416464 37.2094914,12.2814279 C33.8456313,4.55700835 28.2833591,0.299466689 20.9626683,0.299466689 C13.5997975,0.299466689 8.10655873,4.61061608 4.96766662,12.3950685 C2.19412551,19.2734504 1.08203193,29.1234222 1.49966877,42.0701644 L10.4789988,41.7805086 C9.7534741,19.289243 13.788061,9.28346737 20.9626683,9.28346737 C28.2300105,9.28346737 32.6276794,19.3549241 32.6418349,41.8164687 C32.0235619,54.5770859 33.1474914,64.3145504 36.1706559,71.1446627 Z" id="Path-3" fill="#666666"></path>
                </g>
                <path d="M46.7168035,126.973876 C20.4155352,126.973876 0.059394395,98.1938241 0.059394395,63.4869381 C0.059394395,28.7800522 20.4155352,0 46.7168035,0 C73.0180719,0 93.3742127,28.7800522 93.3742127,63.4869381 C93.3742127,98.1938241 73.0180719,126.973876 46.7168035,126.973876 Z M46.7168035,113.797342 C67.8394365,113.797342 86.0577313,91.0922855 86.0577313,62.2890714 C86.0577313,33.4858573 67.8394365,10.7808008 46.7168035,10.7808008 C25.5941705,10.7808008 7.37587578,33.4858573 7.37587578,62.2890714 C7.37587578,91.0922855 25.5941705,113.797342 46.7168035,113.797342 Z" id="Oval" fill="#666666"></path>
            </g>
            <path d="M150.907816,156.321612 L143.832915,156.321612 L143.832915,150.636424 L143.664465,150.636424 C140.941176,155.128447 136.82823,157.374424 131.325502,157.374424 C125.850849,157.374424 121.281688,155.205652 117.617882,150.868043 C113.954076,146.530433 112.1222,140.90847 112.1222,134.001985 C112.1222,126.786674 113.848796,121.087505 117.302038,116.904309 C120.755281,112.721113 125.317423,110.629546 130.988602,110.629546 C136.322879,110.629546 140.379676,112.664963 143.159115,116.735859 L143.327565,116.735859 L143.327565,94.5846822 L150.907816,94.5846822 L150.907816,156.321612 Z M132.125639,151.141774 C135.438506,151.141774 138.245978,149.78015 140.54814,147.056861 C142.850301,144.333572 144.001365,140.206588 144.001365,134.675785 C144.001365,129.229208 142.948563,124.891663 140.842927,121.663022 C138.737292,118.43438 135.719259,116.820084 131.788739,116.820084 C127.858219,116.820084 124.889317,118.399287 122.881945,121.55774 C120.874572,124.716194 119.870901,128.864234 119.870901,134.001985 C119.870901,137.707904 120.411339,140.845254 121.492232,143.41413 C122.573125,145.983005 124.082141,147.913142 126.019326,149.204599 C127.956511,150.496055 129.991928,151.141774 132.125639,151.141774 Z M170.32168,156.321612 L162.741429,156.321612 L162.741429,111.640246 L170.32168,111.640246 L170.32168,156.321612 Z M200.095219,110.629546 C206.131375,110.629546 211.135694,112.594776 215.108327,116.525296 C219.080959,120.455816 221.067246,126.042686 221.067246,133.286073 C221.067246,142.073592 218.91953,148.285124 214.624033,151.920855 C210.328536,155.556586 205.485647,157.374424 200.095219,157.374424 C194.452116,157.374424 189.553077,155.507455 185.397956,151.773461 C181.242835,148.039468 179.165305,142.115701 179.165305,134.001985 C179.165305,126.140945 181.172648,120.280347 185.187393,116.420015 C189.202139,112.559683 194.171364,110.629546 200.095219,110.629546 Z M166.368815,94.4583447 C167.514808,94.4583447 168.464902,94.8314531 169.219125,95.5776811 C169.973349,96.3239091 170.350455,97.384603 170.350455,98.7597947 C170.350455,100.428147 169.9427,101.607436 169.12718,102.297697 C168.311659,102.987958 167.392213,103.333084 166.368815,103.333084 C165.297445,103.333084 164.367339,102.978631 163.578469,102.269714 C162.7896,101.560797 162.395171,100.436142 162.395171,98.8957141 C162.395171,97.403258 162.776274,96.2905955 163.538493,95.5576929 C164.300711,94.8247904 165.244143,94.4583447 166.368815,94.4583447 Z M200.095219,151.141774 C204.418791,151.141774 207.703534,149.541515 209.949545,146.340949 C212.195556,143.140382 213.318545,138.929174 213.318545,133.707198 C213.318545,128.120244 212.048164,123.909036 209.507364,121.073447 C206.966563,118.237857 203.829213,116.820084 200.095219,116.820084 C196.248925,116.820084 193.090519,118.258913 190.619906,121.136615 C188.149294,124.014318 186.914006,128.302731 186.914006,134.001985 C186.914006,139.673164 188.17035,143.94754 190.683075,146.825242 C193.1958,149.702944 196.33315,151.141774 200.095219,151.141774 Z" id="dio" fill="#666666"></path>
        </g>
    </g>
</svg>