<?xml version="1.0" encoding="UTF-8"?>
<svg width="922px" height="931px" viewBox="0 0 922 931" version="1.1" xmlns="http://www.w3.org/2000/svg" xmlns:xlink="http://www.w3.org/1999/xlink">
    <!-- Generator: Sketch 45.2 (43514) - http://www.bohemiancoding.com/sketch -->
    <title>OSX App Icon</title>
    <desc>Created with Sketch.</desc>
    <defs>
        <filter x="-1.0%" y="-1.0%" width="102.1%" height="102.1%" filterUnits="objectBoundingBox" id="filter-1">
            <feOffset dx="0" dy="0" in="SourceAlpha" result="shadowOffsetOuter1"></feOffset>
            <feGaussianBlur stdDeviation="2.5" in="shadowOffsetOuter1" result="shadowBlurOuter1"></feGaussianBlur>
            <feColorMatrix values="0 0 0 0 1   0 0 0 0 1   0 0 0 0 1  0 0 0 0.5 0" type="matrix" in="shadowBlurOuter1" result="shadowMatrixOuter1"></feColorMatrix>
            <feMerge>
                <feMergeNode in="shadowMatrixOuter1"></feMergeNode>
                <feMergeNode in="SourceGraphic"></feMergeNode>
            </feMerge>
        </filter>
        <radialGradient cx="72.9741589%" cy="24.0528266%" fx="72.9741589%" fy="24.0528266%" r="83.422219%" gradientTransform="translate(0.729742,0.240528),scale(1.000000,0.990329),rotate(136.178878),scale(1.000000,0.635378),translate(-0.729742,-0.240528)" id="radialGradient-2">
            <stop stop-color="#B22C2C" offset="0%"></stop>
            <stop stop-color="#CECECE" offset="100%"></stop>
        </radialGradient>
        <linearGradient x1="4.45116755%" y1="32.6022773%" x2="1298.35608%" y2="643.666984%" id="linearGradient-3">
            <stop stop-color="#CECECE" offset="0%"></stop>
            <stop stop-color="#191919" offset="100%"></stop>
        </linearGradient>
        <ellipse id="path-4" cx="454.02032" cy="458.829446" rx="453.880241" ry="458.312665"></ellipse>
    </defs>
    <g id="Page-1" stroke="none" stroke-width="1" fill="none" fill-rule="evenodd">
        <g id="Custom-Preset" transform="translate(-54.000000, -39.000000)">
            <g id="OSX-App-Icon" transform="translate(61.000000, 45.000000)">
                <g id="Group-3-Copy" filter="url(#filter-1)" transform="translate(0.037350, 0.510365)">
                    <ellipse id="Oval-2" fill-opacity="0.59" fill="url(#radialGradient-2)" cx="454.02032" cy="458.829446" rx="453.880241" ry="458.312665"></ellipse>
                    <g id="Oval-2">
                        <use fill-opacity="0.870000005" fill="url(#linearGradient-3)" fill-rule="evenodd" xlink:href="#path-4"></use>
                        <ellipse stroke="#191919" stroke-width="2" cx="454.02032" cy="458.829446" rx="454.880241" ry="459.312665"></ellipse>
                    </g>
                    <g id="Group-3" transform="translate(126.681325, 189.304570)">
                        <g id="Group" transform="translate(0.765394, 0.850171)" fill-rule="nonzero" fill="#444444">
                            <g id="Group-2" transform="translate(119.057578, 288.362776)">
                                <path d="M32.024813,241.020543 C38.1002099,228.546598 48.8387099,207.63948 48.8387099,157.710502 L14.1455771,157.710502 C14.1455771,202.756987 3.85109926,219.486582 0.892931553,225.560262 L32.024813,241.020543 Z" id="Path-3" transform="translate(24.865821, 199.365523) scale(-1, 1) translate(-24.865821, -199.365523) "></path>
                                <path d="M138.577754,276.318359 C151.674766,306.196864 174.504993,322.360587 204.744994,322.360587 C234.762055,322.360587 257.975839,306.47315 272.350634,276.958962 C285.29798,250.375599 291.477826,212.310404 291.477826,162.381427 L256.784693,162.381427 C256.784693,207.427912 251.400162,240.594314 241.218753,261.498682 C232.464793,279.472226 220.985444,287.328654 204.744994,287.328654 C188.727485,287.328654 178.021017,279.748511 170.302149,262.139285 C161.194761,241.362397 157.431128,208.24474 159.622982,163.241828 C159.643922,111.922013 154.126139,73.539414 142.589381,46.7888915 C129.599306,16.66853 108.119716,0.0668044445 79.8497164,0.0668044445 C51.4168319,0.0668044445 30.2038259,16.8775663 18.0824999,47.232018 C7.37203438,74.0533667 3.07750995,112.46204 4.69028037,162.946164 L39.3653767,161.816689 C36.5636488,74.1149475 52.1438413,35.0987373 79.8497164,35.0987373 C107.913702,35.0987373 124.895993,74.3710625 124.950657,161.956911 C122.563098,211.715265 126.903329,249.685231 138.577754,276.318359 Z" id="Path-3"></path>
                            </g>
                            <path d="M180.40429,495.117985 C78.8378026,495.117985 0.229360805,382.893944 0.229360805,247.558992 C0.229360805,112.22404 78.8378026,0 180.40429,0 C281.970778,0 360.57922,112.22404 360.57922,247.558992 C360.57922,382.893944 281.970778,495.117985 180.40429,495.117985 Z M180.40429,443.737816 C261.972662,443.737816 332.325475,355.202425 332.325475,242.888068 C332.325475,130.573711 261.972662,42.0383194 180.40429,42.0383194 C98.8359181,42.0383194 28.4831053,130.573711 28.4831053,242.888068 C28.4831053,355.202425 98.8359181,443.737816 180.40429,443.737816 Z" id="Oval"></path>
                        </g>
                        <path d="M573.042376,426.050853 C581.357651,431.132933 596.894088,435.994052 615.275224,435.994052 C651.381028,435.994052 673.482156,417.433413 673.482156,392.243974 C673.482156,373.241414 659.696303,360.204774 642.628106,357.111335 L642.628106,356.669415 C660.13395,350.703495 668.668048,338.550695 668.668048,323.304455 C668.668048,303.639016 651.818674,287.508936 621.621093,287.508936 C603.021133,287.508936 586.171759,292.811976 577.63766,298.335976 L584.421174,322.641575 C590.110573,319.106216 602.364664,314.024136 613.962286,314.024136 C628.185784,314.024136 634.969299,320.431976 634.969299,329.049415 C634.969299,341.202215 620.964624,345.621415 609.804648,345.621415 L596.894088,345.621415 L596.894088,369.706054 L610.461117,369.706054 C624.903438,369.706054 638.908114,376.113894 638.908114,390.476294 C638.908114,401.082373 630.155192,409.478853 612.868171,409.478853 C599.301142,409.478853 585.734112,403.954853 579.82589,400.640453 L573.042376,426.050853 Z" id="M3" fill="#A12727"></path>
                        <path d="M511.607805,433.563492 L543.993616,433.563492 L536.115986,284.636456 L492.351376,284.636456 L476.81494,334.131495 C471.78201,350.703495 466.749079,370.368934 462.810264,387.603814 L461.934972,387.603814 C458.652626,370.147974 454.276165,351.587335 449.462058,334.352455 L435.019737,284.636456 L390.598658,284.636456 L381.189267,433.563492 L412.043317,433.563492 L414.888016,376.997734 C415.763309,358.437094 416.638601,335.457255 417.29507,315.349896 L417.732716,315.349896 C421.452708,335.015335 426.266815,356.006535 431.080922,373.462374 L446.836182,431.132933 L472.876125,431.132933 L490.819615,373.020454 C496.509014,355.564615 502.63606,334.352455 507.450167,315.349896 L507.887813,315.349896 C507.887813,337.224935 508.544282,358.658054 509.200751,376.555814 L511.607805,433.563492 Z" id="Path" fill="#444444"></path>
                    </g>
                </g>
            </g>
        </g>
    </g>
</svg>