<?xml version="1.0" encoding="UTF-8"?>
<svg width="919px" height="908px" viewBox="0 0 919 908" version="1.1" xmlns="http://www.w3.org/2000/svg" xmlns:xlink="http://www.w3.org/1999/xlink">
    <!-- Generator: Sketch 45.2 (43514) - http://www.bohemiancoding.com/sketch -->
    <title>Win App Icon</title>
    <desc>Created with Sketch.</desc>
    <defs>
        <filter x="-0.8%" y="-0.8%" width="101.7%" height="101.8%" filterUnits="objectBoundingBox" id="filter-1">
            <feOffset dx="0" dy="0" in="SourceAlpha" result="shadowOffsetOuter1"></feOffset>
            <feGaussianBlur stdDeviation="2.5" in="shadowOffsetOuter1" result="shadowBlurOuter1"></feGaussianBlur>
            <feColorMatrix values="0 0 0 0 1   0 0 0 0 1   0 0 0 0 1  0 0 0 0.5 0" type="matrix" in="shadowBlurOuter1" result="shadowMatrixOuter1"></feColorMatrix>
            <feMerge>
                <feMergeNode in="shadowMatrixOuter1"></feMergeNode>
                <feMergeNode in="SourceGraphic"></feMergeNode>
            </feMerge>
        </filter>
        <linearGradient x1="4.45116755%" y1="32.6022773%" x2="1298.35608%" y2="643.666984%" id="linearGradient-2">
            <stop stop-color="#CECECE" offset="0%"></stop>
            <stop stop-color="#191919" offset="100%"></stop>
        </linearGradient>
        <rect id="path-3" x="0" y="0" width="908.973046" height="897"></rect>
    </defs>
    <g id="Page-1" stroke="none" stroke-width="1" fill="none" fill-rule="evenodd">
        <g id="Custom-Preset-Copy" transform="translate(-53.000000, -63.000000)">
            <g id="Win-App-Icon" transform="translate(57.000000, 68.000000)">
                <g id="Group-3-Copy" filter="url(#filter-1)" transform="translate(0.952992, 0.468862)">
                    <g id="Rectangle-2">
                        <use fill="url(#linearGradient-2)" fill-rule="evenodd" xlink:href="#path-3"></use>
                        <rect stroke="#191919" stroke-width="1" x="0.5" y="0.5" width="907.973046" height="896"></rect>
                    </g>
                    <g id="Group-3" transform="translate(148.379527, 173.910214)">
                        <g id="Group" transform="translate(0.703152, 0.781034)" fill-rule="nonzero" fill="#444444">
                            <g id="Group-2" transform="translate(109.375748, 264.912951)">
                                <path d="M29.420537,221.420615 C35.0018792,209.961059 44.8671182,190.754119 44.8671182,144.885395 L12.9952508,144.885395 C12.9952508,186.268674 3.53792567,201.637808 0.82031785,207.217573 L29.420537,221.420615 Z" id="Path-3" transform="translate(22.843718, 183.153005) scale(-1, 1) translate(-22.843718, -183.153005) "></path>
                                <path d="M127.308532,253.847993 C139.340488,281.296761 160.314148,296.14604 188.095015,296.14604 C215.671071,296.14604 236.997097,281.550579 250.202926,254.436502 C262.097386,230.014913 267.774683,195.045201 267.774683,149.176477 L235.902816,149.176477 C235.902816,190.559756 230.956157,221.029047 221.602706,240.23346 C213.560623,256.745385 203.014782,263.962924 188.095015,263.962924 C173.380059,263.962924 163.544247,256.999203 156.453082,240.821969 C148.086311,221.734669 144.628739,191.310159 146.64235,149.966909 C146.661587,102.820451 141.592513,67.559147 130.993932,42.9839923 C119.060217,15.3130357 99.3273595,0.0613718691 73.356292,0.0613718691 C47.2355859,0.0613718691 27.7476336,15.505073 16.6120207,43.3910834 C6.77253635,68.0313047 2.82724509,103.316563 4.3088641,149.695289 L36.1641618,148.657664 C33.5902721,68.0878778 47.9034745,32.244488 73.356292,32.244488 C99.1380986,32.244488 114.73938,68.3231654 114.789598,148.786483 C112.596197,194.498459 116.583478,229.380686 127.308532,253.847993 Z" id="Path-3"></path>
                            </g>
                            <path d="M165.733711,454.854708 C72.4266677,454.854708 0.210709054,351.756791 0.210709054,227.427354 C0.210709054,103.097918 72.4266677,0 165.733711,0 C259.040754,0 331.256712,103.097918 331.256712,227.427354 C331.256712,351.756791 259.040754,454.854708 165.733711,454.854708 Z M165.733711,407.652804 C240.668896,407.652804 305.300578,326.317162 305.300578,223.136272 C305.300578,119.955382 240.668896,38.6197394 165.733711,38.6197394 C90.798525,38.6197394 26.166843,119.955382 26.166843,223.136272 C26.166843,326.317162 90.798525,407.652804 165.733711,407.652804 Z" id="Oval"></path>
                        </g>
                        <path d="M526.442243,391.404155 C534.081316,396.072957 548.354321,400.538768 565.240693,400.538768 C598.410352,400.538768 618.714203,383.48749 618.714203,360.34647 C618.714203,342.88921 606.049424,330.912717 590.369222,328.070838 L590.369222,327.664855 C606.451481,322.184087 614.291582,311.01956 614.291582,297.013153 C614.291582,278.946918 598.812408,264.128546 571.070512,264.128546 C553.983112,264.128546 538.503937,269.00034 530.663836,274.075125 L536.895712,296.404179 C542.122446,293.156316 553.380027,288.487514 564.034523,288.487514 C577.101359,288.487514 583.333234,294.374265 583.333234,302.29093 C583.333234,313.455457 570.467427,317.515285 560.214987,317.515285 L548.354321,317.515285 L548.354321,339.641347 L560.818072,339.641347 C574.085935,339.641347 586.951742,345.528098 586.951742,358.722539 C586.951742,368.466126 578.910613,376.1798 563.029382,376.1798 C550.565632,376.1798 538.101881,371.105015 532.674119,368.060144 L526.442243,391.404155 Z" id="M3" fill="#A12727"></path>
                        <path d="M470.003567,398.305862 L499.755746,398.305862 L492.518729,261.489658 L452.313082,261.489658 L438.040077,306.959732 C433.416428,322.184087 428.792779,340.250322 425.17427,356.083651 L424.370157,356.083651 C421.354734,340.04733 417.334169,322.996052 412.911548,307.162723 L399.643684,261.489658 L358.834953,261.489658 L350.190739,398.305862 L378.53572,398.305862 L381.149087,346.340064 C381.9532,329.288786 382.757313,308.17768 383.360397,289.705463 L383.762454,289.705463 C387.179934,307.771697 391.602555,327.055881 396.025176,343.092201 L410.499209,396.072957 L434.421569,396.072957 L450.905884,342.686218 C456.132619,326.649898 461.761409,307.162723 466.18403,289.705463 L466.586087,289.705463 C466.586087,309.801611 467.189171,329.491777 467.792256,345.934081 L470.003567,398.305862 Z" id="Path" fill="#444444"></path>
                    </g>
                </g>
            </g>
        </g>
    </g>
</svg>